name analog
datacolumns 19
datarows 23
range 0.2095 0.2205
endheader
time	ground_force_vx	ground_force_vy	ground_force_vz	ground_force_px	ground_force_py	ground_force_pz	l_ground_force_vx	l_ground_force_vy	l_ground_force_vz	l_ground_force_px	l_ground_force_py	l_ground_force_pz	ground_torque_x	ground_torque_y	ground_torque_z	l_ground_torque_x	l_ground_torque_y	l_ground_torque_z
0.2095	-0.0	-0.0	-0.0	-6.090110301971436	39.15003204345703	-339.40069580078125	2.8832814693450928	-65.005126953125	-534.4635009765625	-0.0	-0.0	-0.0	-0.0	-0.0	-0.0	144591.15625	-39116.6171875	5265.73828125
0.21	-0.0	-0.0	-0.0	-4.126997470855713	42.5143928527832	-348.8526916503906	2.6172215938568115	-65.7330322265625	-533.330078125	-0.0	-0.0	-0.0	-0.0	-0.0	-0.0	144020.59375	-39029.609375	5205.86669921875
0.2105	-0.0	-0.0	-0.0	-3.882089614868164	45.01085662841797	-356.5370483398437	2.328169107437134	-65.77741241455078	-531.6699829101562	-0.0	-0.0	-0.0	-0.0	-0.0	-0.0	143064.578125	-38639.21484375	5220.76025390625
0.211	-0.0	-0.0	-0.0	-2.165757894515991	46.50245666503906	-360.2519836425781	1.3761482238769531	-65.66830444335938	-527.2160034179688	-0.0	-0.0	-0.0	-0.0	-0.0	-0.0	141998.640625	-38314.17578125	5168.02685546875
0.2115	-0.0	-0.0	-0.0	-2.321878671646118	47.352027893066406	-361.2135925292969	1.706134557723999	-65.51239776611328	-523.3818359375	-0.0	-0.0	-0.0	-0.0	-0.0	-0.0	141179.078125	-37672.796875	5064.91015625
0.212	-0.0	-0.0	-0.0	-2.810805320739746	48.15169143676758	-361.3031005859375	1.2205454111099243	-64.82913970947266	-518.4901123046875	-0.0	-0.0	-0.0	-0.0	-0.0	-0.0	139784.1875	-37351.3203125	5086.2724609375
0.2125	-0.0	-0.0	-0.0	-2.14105224609375	47.730079650878906	-357.77130126953125	0.709686279296875	-64.49720764160156	-514.22119140625	-0.0	-0.0	-0.0	-0.0	-0.0	-0.0	138542.0	-36930.0625	4953.04541015625
0.213	-0.0	-0.0	-0.0	-2.0761401653289795	46.9928092956543	-356.4484558105469	0.687189519405365	-64.38650512695312	-510.6417846679688	-0.0	-0.0	-0.0	-0.0	-0.0	-0.0	137624.9375	-36422.62890625	4915.8876953125
0.2135	-0.0	-0.0	-0.0	-1.964373588562012	46.32509231567383	-352.3973693847656	0.1774215698242187	-63.37152099609375	-505.66021728515625	-0.0	-0.0	-0.0	-0.0	-0.0	-0.0	136130.765625	-36131.671875	4656.8291015625
0.214	-0.0	-0.0	-0.0	-2.272035837173462	45.16824722290039	-350.4446716308594	-0.3758462071418762	-62.973365783691406	-502.1688537597656	-0.0	-0.0	-0.0	-0.0	-0.0	-0.0	135131.796875	-35480.86328125	4463.53125
0.2145	-0.0	-0.0	-0.0	-2.207462787628174	43.7214469909668	-347.08563232421875	-0.8452533483505249	-61.84767532348633	-497.9857177734375	-0.0	-0.0	-0.0	-0.0	-0.0	-0.0	133697.078125	-35245.609375	4211.09375
0.215	-0.0	-0.0	-0.0	-1.6949996948242188	43.097747802734375	-344.4493103027344	-1.2645816802978516	-60.70133590698242	-493.9604797363281	-0.0	-0.0	-0.0	-0.0	-0.0	-0.0	132427.140625	-34701.7734375	4076.714111328125
0.2155	-0.0	-0.0	-0.0	-1.4937057495117188	42.09468460083008	-340.73712158203125	-1.6194610595703125	-59.46501159667969	-489.5182800292969	-0.0	-0.0	-0.0	-0.0	-0.0	-0.0	131528.40625	-34171.765625	3833.144287109375
0.216	-0.0	-0.0	-0.0	-1.113939881324768	41.68777084350586	-339.2246398925781	-2.3271143436431885	-58.82429504394531	-485.1502380371094	-0.0	-0.0	-0.0	-0.0	-0.0	-0.0	130600.953125	-33788.63671875	3638.98046875
0.2165	-0.0	-0.0	-0.0	-0.4001829326152801	40.76308822631836	-335.7933349609375	-2.640798091888428	-57.41129302978516	-481.8292236328125	-0.0	-0.0	-0.0	-0.0	-0.0	-0.0	129676.0546875	-33633.7265625	3446.6318359375
0.217	-0.0	-0.0	-0.0	0.3798132836818695	40.66641616821289	-335.42999267578125	-3.236769676208496	-56.79084777832031	-479.3944091796875	-0.0	-0.0	-0.0	-0.0	-0.0	-0.0	128881.6953125	-33055.79296875	3245.532470703125
0.2175	-0.0	-0.0	-0.0	0.6502291560173035	40.83917617797852	-332.7974853515625	-3.614355564117432	-56.235801696777344	-476.5022888183594	-0.0	-0.0	-0.0	-0.0	-0.0	-0.0	127873.8671875	-32831.390625	3036.912841796875
0.218	-0.0	-0.0	-0.0	1.4215519428253174	40.68947982788086	-333.1398620605469	-3.7030301094055176	-55.531620025634766	-472.8309631347656	-0.0	-0.0	-0.0	-0.0	-0.0	-0.0	127157.0546875	-32356.978515625	2824.240478515625
0.2185	-0.0	-0.0	-0.0	1.9226067066192627	40.91085815429688	-334.1874694824219	-4.25266695022583	-54.87052917480469	-469.7096252441406	-0.0	-0.0	-0.0	-0.0	-0.0	-0.0	126043.0234375	-32255.111328125	2623.137939453125
0.219	-0.0	-0.0	-0.0	2.4517056941986084	41.115352630615234	-332.8658447265625	-4.346828460693359	-54.66829681396485	-466.8157348632813	-0.0	-0.0	-0.0	-0.0	-0.0	-0.0	125403.6171875	-31795.638671875	2629.826904296875
0.2195	-0.0	-0.0	-0.0	3.0529842376708984	41.511661529541016	-333.4803771972656	-4.524250030517578	-54.01314926147461	-465.16015625	-0.0	-0.0	-0.0	-0.0	-0.0	-0.0	124591.0390625	-31443.708984375	2451.84912109375
0.22	-0.0	-0.0	-0.0	3.809441089630127	41.96072006225586	-334.0301818847656	-4.307147026062012	-53.87933349609375	-461.9398498535156	-0.0	-0.0	-0.0	-0.0	-0.0	-0.0	123872.234375	-31430.50390625	2370.685546875
0.2205	-0.0	-0.0	-0.0	3.902061700820923	42.68987274169922	-334.8003845214844	-4.501256942749023	-53.94490432739258	-460.0785217285156	-0.0	-0.0	-0.0	-0.0	-0.0	-0.0	123248.609375	-31336.095703125	2258.44873046875
